<?xml version="1.0" encoding="UTF-8"?><svg id="Layer_2" xmlns="http://www.w3.org/2000/svg" viewBox="0 0 176 154.19"><defs><style>.cls-1{fill:#54d0ce;}</style></defs><g id="Layer_5"><path class="cls-1" d="m161.53,26.77C146.12,10.26,119,0,90.76,0c-24.99,0-47.88,6.46-64.46,18.19C9.34,30.19,0,46.75,0,64.83c0,16.02,5.74,38.05,32.46,53.63l-12.37,35.74,11.52-3.36c11.17-3.26,21.89-6.11,32.25-8.87,14.41-3.84,28.03-7.46,40.05-11.47,34.91-10.67,69.21-24.43,71.95-64.11,1.02-14.77-3.94-28.47-14.34-39.61Zm1.96,38.76c-2,29.02-23.78,41.06-63.27,53.12l-.15.05c-11.68,3.89-25.15,7.48-39.4,11.27-6.85,1.82-13.85,3.69-21.05,5.68l7.83-22.61-4-2.66c-.51-.34-1.08-.64-1.96-1.1-19.31-10.24-29.1-25.2-29.1-44.47,0-29.89,33.69-52.43,78.36-52.43,24.91,0,48.56,8.75,61.71,22.83,8.11,8.68,11.82,18.88,11.03,30.29Z"/><path class="cls-1" d="m120.64,38.33h-60.88c-14.26,0-25.93,11.67-25.93,25.93v1.13c0,14.26,11.67,25.93,25.93,25.93h60.88c14.26,0,25.93-11.67,25.93-25.93v-1.13c0-14.26-11.67-25.93-25.93-25.93Zm-59.19,41.72c-8.39,0-15.22-6.83-15.22-15.22s6.83-15.22,15.22-15.22,15.22,6.83,15.22,15.22-6.83,15.22-15.22,15.22Zm57.5,0c-8.39,0-15.22-6.83-15.22-15.22s6.83-15.22,15.22-15.22,15.22,6.83,15.22,15.22-6.83,15.22-15.22,15.22Z"/><circle class="cls-1" cx="118.95" cy="64.83" r="6.2"/><circle class="cls-1" cx="61.45" cy="64.83" r="6.2"/></g></svg>