<?xml version="1.0" encoding="UTF-8"?><svg id="Layer_2" xmlns="http://www.w3.org/2000/svg" viewBox="0 0 411 136.76"><defs><style>.cls-1,.cls-2{fill:#54d0ce;}.cls-2{font-family:UbuntuMono-Bold, 'Ubuntu Mono';font-size:57.77px;font-weight:700;letter-spacing:0em;}</style></defs><g id="Layer_6"><path class="cls-1" d="m143.27,23.75C129.6,9.1,105.55,0,80.5,0c-22.17,0-42.47,5.73-57.18,16.14C8.28,26.78,0,41.47,0,57.5c0,14.21,5.09,33.75,28.79,47.56l-10.97,31.7,10.22-2.98c9.91-2.89,19.41-5.42,28.61-7.87,12.78-3.4,24.86-6.62,35.53-10.17,30.97-9.47,61.39-21.67,63.81-56.86.9-13.1-3.49-25.25-12.72-35.13Zm1.74,34.37c-1.77,25.74-21.09,36.42-56.12,47.12l-.13.04c-10.36,3.45-22.3,6.63-34.94,10-6.07,1.62-12.28,3.27-18.67,5.04l6.94-20.05-3.55-2.36c-.45-.3-.96-.57-1.73-.98-17.12-9.08-25.81-22.35-25.81-39.44,0-26.51,29.88-46.5,69.5-46.5,22.1,0,43.07,7.76,54.73,20.25,7.19,7.7,10.48,16.74,9.78,26.87Z"/><path class="cls-1" d="m107,34h-54c-12.65,0-23,10.35-23,23v1c0,12.65,10.35,23,23,23h54c12.65,0,23-10.35,23-23v-1c0-12.65-10.35-23-23-23Zm-52.5,37c-7.44,0-13.5-6.06-13.5-13.5s6.06-13.5,13.5-13.5,13.5,6.06,13.5,13.5-6.06,13.5-13.5,13.5Zm51,0c-7.44,0-13.5-6.06-13.5-13.5s6.06-13.5,13.5-13.5,13.5,6.06,13.5,13.5-6.06,13.5-13.5,13.5Z"/><circle class="cls-1" cx="105.5" cy="57.5" r="5.5"/><circle class="cls-1" cx="54.5" cy="57.5" r="5.5"/><text class="cls-2" transform="translate(181.29 75.88)"><tspan x="0" y="0">tainybot</tspan></text></g></svg>